HIERARCHY
ROOT Hips
{
	OFFSET -3.958830 18.904000 13.208200
	CHANNELS 6 Xposition Yposition Zposition Zrotation Yrotation Xrotation 
	JOINT LHipJoint
	{
		OFFSET 0.000000 0.000000 0.000000
		CHANNELS 3 Zrotation Yrotation Xrotation
		JOINT LeftUpLeg
		{
			OFFSET 1.800000 -1.400000 0.085000
			CHANNELS 3 Zrotation Yrotation Xrotation
			JOINT LeftLeg
			{
				OFFSET 2.215000 -6.000000 0.000000
				CHANNELS 3 Zrotation Yrotation Xrotation
				JOINT LeftFoot
				{
					OFFSET 2.500000 -6.900000 0.000000
					CHANNELS 3 Zrotation Yrotation Xrotation
					JOINT LeftToeBase
					{
						OFFSET 0.200000 -0.500000 1.950000
						CHANNELS 3 Zrotation Yrotation Xrotation
						End Site
						{
							OFFSET 0.000000 0.000000 0.000000
						}
					}
				}
			}
		}
	}
	JOINT RHipJoint
	{
		OFFSET 0.000000 0.000000 0.000000
		CHANNELS 3 Zrotation Yrotation Xrotation
		JOINT RightUpLeg
		{
			OFFSET -1.800000 -1.400000 0.085000
			CHANNELS 3 Zrotation Yrotation Xrotation
			JOINT RightLeg
			{
				OFFSET -2.215000 -6.000000 0.000000
				CHANNELS 3 Zrotation Yrotation Xrotation
				JOINT RightFoot
				{
					OFFSET -2.500000 -6.900000 0.000000
					CHANNELS 3 Zrotation Yrotation Xrotation
					JOINT RightToeBase
					{
						OFFSET -0.200000 -0.500000 1.950000
						CHANNELS 3 Zrotation Yrotation Xrotation
						End Site
						{
							OFFSET 0.000000 0.000000 0.000000
						}
					}
				}
			}
		}
	}
	JOINT LowerBack
	{
		OFFSET 0.000000 0.000000 0.000000
		CHANNELS 3 Zrotation Yrotation Xrotation
		JOINT Spine
		{
			OFFSET -0.087000 1.940000 -0.288900
			CHANNELS 3 Zrotation Yrotation Xrotation
			JOINT Spine1
			{
				OFFSET 0.000000 1.950000 0.060000
				CHANNELS 3 Zrotation Yrotation Xrotation
				JOINT Neck
				{
					OFFSET 0.000000 0.000000 0.000000
					CHANNELS 3 Zrotation Yrotation Xrotation
					JOINT Neck1
					{
						OFFSET 0.000000 1.600000 0.340000
						CHANNELS 3 Zrotation Yrotation Xrotation
						JOINT Head
						{
							OFFSET 0.000000 1.667000 -0.240000
							CHANNELS 3 Zrotation Yrotation Xrotation
							End Site
							{
								OFFSET 0.000000 0.000000 0.000000
							}
						}
					}
				}
				JOINT LeftShoulder
				{
					OFFSET 0.000000 0.000000 0.000000
					CHANNELS 3 Zrotation Yrotation Xrotation
					JOINT LeftArm
					{
						OFFSET 2.700000 1.550000 -0.730000
						CHANNELS 3 Zrotation Yrotation Xrotation
						JOINT LeftForeArm
						{
							OFFSET 5.450000 0.000000 0.000000
							CHANNELS 3 Zrotation Yrotation Xrotation
							JOINT LeftHand
							{
								OFFSET 3.450000 0.000000 0.000000
								CHANNELS 3 Zrotation Yrotation Xrotation
								JOINT LeftHandIndex1
								{
									OFFSET 0.750000 0.000000 0.000000
									CHANNELS 3 Zrotation Yrotation Xrotation
									End Site
									{
										OFFSET 0.000000 0.000000 0.000000
									}
								}
							}
						}
					}
				}
				JOINT RightShoulder
				{
					OFFSET 0.000000 0.000000 0.000000
					CHANNELS 3 Zrotation Yrotation Xrotation
					JOINT RightArm
					{
						OFFSET -2.700000 1.550000 -0.730000
						CHANNELS 3 Zrotation Yrotation Xrotation
						JOINT RightForeArm
						{
							OFFSET -5.450000 0.000000 0.000000
							CHANNELS 3 Zrotation Yrotation Xrotation
							JOINT RightHand
							{
								OFFSET -3.450000 0.000000 0.000000
								CHANNELS 3 Zrotation Yrotation Xrotation
								JOINT RightHandIndex1
								{
									OFFSET -0.750000 0.000000 0.000000
									CHANNELS 3 Zrotation Yrotation Xrotation
									End Site
									{
										OFFSET 0.000000 0.000000 0.000000
									}
								}
							}
						}
					}
				}
			}
		}
	}
}
MOTION
Frames: 12
Frame Time: 0.016667
0.328230 17.086750 -1.641790 1.599833 30.863446 3.555943 -14.984353 12.345288 3.075151 1.304577 -2.820198 -25.845318 -3.106822 7.545902 31.618063 -1.180008 5.807216 2.494115 1.001660 0.718840 0.441600 18.447948 -11.596450 3.130191 3.530606 4.587751 -14.506906 4.056066 -6.181571 33.743206 -0.570208 -5.315724 2.550807 0.846900 0.589840 0.112900 -4.934484 0.898017 -8.029138 14.508782 4.546377 20.961225 -4.817776 6.268715 26.074766 1.845132 2.869009 -9.182787 3.072244 -10.705277 32.596863 11.317610 -13.603120 -23.098090 -8.303826 -40.115981 4.219953 -35.406864 -61.773113 28.482957 76.776257 -52.910992 -44.516121 -3.525500 1.389806 0.599860 0.171670 -0.210550 0.429240 4.289991 38.648925 5.222800 23.618115 44.425029 -4.492645 -17.356550 52.436008 -9.855727 1.161414 -1.279600 -0.466820 0.818940 -0.016380 -0.141220 
0.318530 17.084040 -1.624560 2.297694 30.833108 3.817207 -15.032093 12.463366 3.099319 0.520711 -2.786237 -25.628175 -2.389861 7.281912 31.576714 -1.177033 5.694150 2.540961 1.033900 0.760650 0.453340 18.376912 -11.567234 3.147473 3.036762 4.763823 -14.617651 4.293275 -6.279835 34.352570 -0.597187 -5.393382 2.524357 0.865020 0.577970 0.111050 -4.761329 0.658063 -8.084000 13.222100 4.939398 21.415026 -4.251808 6.512738 25.972662 1.583379 3.024268 -9.241954 3.229747 -10.837580 32.869184 11.505290 -13.665620 -23.325580 -7.841671 -40.416957 4.046745 -35.771148 -62.631945 29.892480 76.295925 -51.756427 -43.459354 -3.515516 1.422170 0.599230 0.159720 -0.195830 0.450320 4.163925 39.184672 5.113046 23.696071 45.668088 -3.725354 -17.744138 50.857751 -9.680129 1.194706 -1.269255 -0.452600 0.819130 -0.042910 -0.133160 
0.299180 17.093410 -1.616430 2.568400 31.543160 3.956364 -15.033187 12.484771 3.137339 0.331140 -2.679885 -25.875853 -2.448688 7.412784 31.727755 -1.180824 5.715693 2.521714 1.037400 0.772320 0.459290 18.356049 -11.539988 3.221547 2.569723 5.337092 -15.142209 5.078175 -6.596151 35.366776 -0.634688 -5.528756 2.469898 0.869180 0.568370 0.098960 -4.776086 0.590300 -8.255888 13.313666 5.087857 22.770912 -4.365049 6.586081 25.137629 1.292039 3.556467 -9.174024 3.888648 -11.616816 33.258381 12.190720 -14.061240 -24.539530 -6.780210 -40.512747 3.414097 -37.274870 -65.079912 34.100215 73.674327 -50.048441 -40.497765 -3.517370 1.340952 0.622340 0.138790 -0.176520 0.443820 3.311480 38.732809 4.800730 24.365525 46.439189 -3.228924 -18.345639 50.544398 -9.954095 1.214677 -1.230899 -0.457010 0.843090 -0.040220 -0.132540 
0.287750 17.108800 -1.609590 2.393785 31.758883 3.491260 -14.990893 12.432641 3.079509 0.604142 -2.793775 -25.405344 -2.400072 7.242810 31.458712 -1.170884 5.599382 2.543385 1.048830 0.788260 0.477290 18.410164 -11.548283 3.231878 2.397571 5.657100 -15.554297 5.278418 -7.011536 37.101026 -0.716447 -5.754034 2.385558 0.850550 0.507090 0.088860 -4.935339 0.721982 -8.216013 14.460088 4.595699 23.619728 -5.675350 6.369412 24.748083 1.275595 3.565098 -8.522962 3.388531 -11.642545 34.647881 13.312150 -13.971730 -25.915900 -5.758819 -42.796595 1.740462 -34.225999 -63.576160 29.670920 67.628313 -50.605793 -35.783809 -3.507005 1.449806 0.664400 0.083130 -0.129110 0.430120 2.257975 40.073732 5.393663 23.380558 45.582660 -4.816571 -19.722950 51.574754 -10.965904 1.225819 -1.187317 -0.434330 0.821940 -0.055650 -0.139780 
0.271500 17.109030 -1.603510 2.165492 31.621818 3.659779 -14.967648 12.292939 3.012177 1.083229 -2.955949 -25.522970 -2.713465 7.310464 31.378656 -1.155890 5.621416 2.550214 1.045480 0.800480 0.471970 18.478049 -11.448966 3.268553 1.894668 6.532768 -17.289959 6.045465 -7.751382 39.861383 -0.796965 -6.177570 2.243417 0.858760 0.531350 0.073340 -5.016830 0.859924 -8.123211 14.842253 4.008668 23.348190 -6.896512 5.978764 24.306222 1.564302 3.144839 -7.459399 2.582032 -11.034649 34.905287 13.357220 -13.880720 -25.504790 -5.150697 -43.906631 0.391629 -29.469337 -61.617475 23.776271 62.305928 -52.123780 -32.210941 -3.547639 1.629113 0.642940 0.090960 -0.135080 0.438800 1.434745 40.964241 4.851096 22.081138 45.884191 -3.936428 -20.248686 49.258310 -10.570882 1.284631 -1.146718 -0.437250 0.853070 -0.060780 -0.121170 
0.242740 17.111130 -1.594170 2.207989 30.844363 3.489240 -14.974284 12.297207 2.868969 1.678010 -2.606184 -24.585670 -3.449143 7.531291 30.333166 -1.148960 5.561943 2.558052 1.016810 0.767620 0.471250 18.498817 -11.263009 3.387363 0.766124 8.069333 -18.960280 7.253741 -8.836179 43.806971 -0.942574 -6.849775 2.001571 0.820850 0.516900 0.091090 -4.966845 0.715557 -8.077314 14.630581 3.780054 24.219551 -7.297601 5.985029 23.996001 1.144430 2.631230 -6.949628 1.463118 -10.235536 35.498627 13.685200 -13.298210 -25.718350 -3.679528 -44.536466 -0.559520 -21.917558 -60.481083 16.088121 57.551699 -52.404860 -29.039525 -3.657405 1.898491 0.658140 0.081620 -0.115200 0.407350 0.796595 42.042028 4.500782 19.727445 44.919844 -4.487741 -21.585527 46.995728 -10.595036 1.371640 -1.122088 -0.422710 0.830390 -0.039690 -0.123880 
0.222520 17.124650 -1.593700 1.937885 29.573309 3.060447 -14.958902 12.220231 2.724523 2.541132 -2.299852 -23.719191 -4.424745 7.919975 29.704875 -1.153291 5.621648 2.518408 0.994900 0.698160 0.503880 18.546717 -11.032824 3.607201 -1.028287 10.120968 -21.210945 9.409404 -10.734328 48.592743 -1.171381 -7.809815 1.659915 0.770820 0.461900 0.108550 -4.975395 0.691186 -8.134761 15.120520 3.313941 25.948007 -8.339047 6.057896 23.224527 1.177336 1.998400 -6.871712 0.241856 -9.729260 35.955948 13.715980 -12.834360 -26.341450 -2.682892 -44.644136 -0.393904 -12.522412 -59.679900 7.975748 54.350050 -51.837781 -26.606815 -3.706810 2.118786 0.729100 0.042690 -0.083530 0.369840 -0.317722 42.786471 3.407584 16.358737 42.587752 -6.008428 -20.257987 46.948730 -9.774454 1.429922 -1.176906 -0.432550 0.786410 -0.026440 -0.167170 
0.211430 17.138100 -1.579480 1.084782 28.552075 2.017128 -14.931164 12.152417 2.508133 4.034730 -1.950726 -21.779309 -5.388926 7.897886 27.604551 -1.175207 5.423692 2.568439 0.970610 0.653430 0.553390 18.600419 -10.808431 3.903655 -2.791125 11.939832 -23.565161 12.115455 -13.710859 53.991467 -1.495524 -9.041136 1.256256 0.718930 0.382070 0.107760 -5.037321 0.690434 -8.250026 15.862288 2.359795 27.736624 -9.216259 5.616128 22.284525 1.463203 1.814691 -6.950716 -0.244917 -9.016076 37.511051 13.622050 -11.804030 -27.515830 -1.725156 -44.522032 -0.417890 -3.937250 -58.249932 0.602994 49.480385 -48.194600 -22.556195 -3.717220 2.289223 0.795820 -0.009190 -0.029320 0.313100 -1.667908 42.788597 2.532328 13.970197 41.457346 -6.317665 -20.904600 43.946235 -9.294832 1.534227 -1.165849 -0.428920 0.749500 -0.022030 -0.209660 
0.195370 17.165850 -1.568800 0.180962 28.634375 0.642138 -14.908757 12.045588 2.285293 5.543143 -1.590978 -20.012067 -6.145224 7.897492 25.979201 -1.167393 5.323304 2.618208 0.958000 0.629890 0.587480 18.660750 -10.550347 4.207278 -5.066053 13.544111 -25.839110 15.657671 -17.638511 58.802153 -1.886608 -10.393047 0.867055 0.676230 0.350030 0.108090 -5.135177 0.694456 -8.354542 17.155605 0.795473 29.982736 -9.935641 4.644379 20.993439 1.614882 1.600069 -6.618666 -0.754147 -8.268380 38.987198 13.903330 -10.840930 -28.813440 -0.331445 -43.500249 -1.190696 3.199300 -55.633131 -4.611808 43.089726 -46.732587 -18.697273 -3.680271 2.371201 0.862890 -0.047340 0.028210 0.300800 -3.144398 41.666038 1.834277 10.795373 39.291957 -6.743969 -20.429479 41.390753 -8.369127 1.606591 -1.186644 -0.431960 0.760200 -0.032700 -0.226060 
0.177830 17.201580 -1.547270 -0.284155 28.755420 -0.259866 -14.896961 11.985205 2.185765 6.653281 -1.637862 -18.839815 -6.870123 7.997853 25.367108 -1.073396 5.307914 2.608040 0.917090 0.590270 0.565300 18.697131 -10.298266 4.440996 -7.495404 14.111927 -28.698108 17.302782 -21.294209 63.777396 -2.226645 -11.636199 0.527498 0.596830 0.294430 0.116130 -5.178389 0.512930 -8.468068 17.699574 -1.108679 32.326225 -10.650268 3.276570 19.372519 1.111101 0.803634 -7.062858 -2.530013 -6.983485 40.630334 15.315580 -10.097790 -29.504870 1.092614 -42.279477 -1.726066 7.941481 -50.830594 -8.247286 39.238616 -43.803006 -15.935219 -3.627365 2.483264 0.893050 -0.097850 0.073940 0.277480 -3.576278 40.569576 2.437333 7.781820 36.891587 -7.849324 -20.918323 40.189997 -7.991131 1.663342 -1.204008 -0.389120 0.696690 -0.034890 -0.219850 
0.164970 17.229790 -1.539960 -0.646361 30.473020 -0.770227 -14.904551 11.897354 2.191292 7.332281 -2.209301 -19.046732 -7.290554 8.062567 25.785381 -0.976550 5.391021 2.586240 0.818640 0.444630 0.560580 18.710238 -10.020962 4.660525 -10.773678 13.579627 -32.124144 19.304866 -25.502803 67.368331 -2.506574 -12.754542 0.245880 0.462470 0.255420 0.112080 -5.204483 0.249014 -8.611629 19.040945 -3.521606 34.600100 -11.186417 1.596301 17.321650 0.630280 0.468576 -8.547278 -3.921978 -6.728723 42.435000 15.642380 -10.263380 -28.925540 3.003484 -41.052254 -2.574165 12.341248 -45.981500 -10.524245 33.509409 -37.019219 -11.635317 -3.626482 2.565233 0.930920 -0.132130 0.091180 0.230170 -4.591087 38.978069 4.715623 5.341343 32.296119 -9.805795 -22.515005 39.842943 -8.101620 1.667870 -1.195517 -0.384990 0.639180 -0.021890 -0.239740 
0.147730 17.264970 -1.527430 -1.677099 29.753193 -1.066243 -14.930400 11.893575 2.190722 8.771682 -2.320917 -19.346151 -8.019863 8.264128 25.438865 -0.822215 5.400914 2.563167 0.698680 0.287120 0.538610 18.708670 -9.595157 5.007624 -13.504931 13.973959 -36.303687 20.847583 -28.756866 70.394578 -2.735929 -13.612045 0.049554 0.282570 0.175090 0.125440 -5.074759 -0.257694 -8.796279 19.810621 -5.451680 37.250777 -11.552963 0.460139 13.788966 0.726286 -1.181430 -10.183791 -7.750842 -5.028323 44.960810 16.176190 -10.089010 -28.875780 2.549681 -38.333356 -1.626835 12.424357 -40.641325 -10.312253 30.567571 -33.472806 -9.575707 -3.562679 2.595537 0.963250 -0.191490 0.134590 0.165480 -4.450436 37.520952 5.789418 2.027434 28.623656 -10.359590 -21.122713 39.244874 -6.593551 1.753086 -1.147090 -0.334340 0.523680 -0.010430 -0.247700 
